<?xml version="1.0" standalone="no"?>
<!DOCTYPE svg PUBLIC "-//W3C//DTD SVG 20010904//EN"
 "http://www.w3.org/TR/2001/REC-SVG-20010904/DTD/svg10.dtd">
<svg version="1.0" xmlns="http://www.w3.org/2000/svg"
 width="1992.000000pt" height="1992.000000pt" viewBox="0 0 1992.000000 1992.000000"
 preserveAspectRatio="xMidYMid meet">
<metadata>
Created by potrace 1.11, written by Peter Selinger 2001-2013
</metadata>
<g transform="translate(0.000000,1992.000000) scale(0.100000,-0.100000)"
fill="#000000" stroke="none">
<path d="M9872 12918 c-1395 -1806 -1762 -2283 -1762 -2288 0 -3 159 -127 353
-277 194 -149 469 -362 612 -473 676 -525 1198 -925 1206 -925 4 0 218 272
475 605 257 333 515 667 573 742 158 204 750 970 887 1148 259 335 354 461
354 469 0 11 -5 15 -950 741 -239 184 -609 468 -822 632 -212 164 -391 298
-397 298 -5 0 -244 -303 -529 -672z"/>
<path d="M5096 11343 c-284 -368 -515 -671 -513 -675 2 -7 107 -89 901 -705
38 -30 72 -52 77 -51 4 2 71 86 150 188 78 102 287 372 464 600 404 521 415
536 415 548 0 9 -272 222 -682 533 -53 41 -142 109 -197 152 l-100 77 -515
-667z"/>
<path d="M6735 11055 l-109 -13 -44 -48 c-108 -123 -673 -866 -668 -880 4 -11
15 -13 44 -8 48 7 60 -7 38 -41 -16 -24 -15 -25 3 -25 15 0 20 8 23 33 l3 32
114 3 c122 3 153 -6 116 -34 -16 -12 -36 -14 -93 -9 l-74 7 -29 -33 c-16 -18
-28 -38 -26 -43 4 -12 34 -23 90 -31 76 -12 30 -55 -58 -55 -24 0 -47 -4 -50
-10 -4 -6 35 -10 109 -10 71 0 117 4 121 11 4 6 -2 13 -14 16 -37 9 -23 23 24
23 25 0 48 0 52 1 4 0 11 -14 16 -31 7 -26 11 -30 30 -24 34 10 38 17 22 48
-8 16 -15 37 -15 47 0 11 -6 19 -14 19 -28 0 -27 19 1 34 l28 14 -27 7 c-31 8
-36 20 -12 29 29 11 53 6 66 -13 8 -11 31 -22 51 -26 28 -5 37 -12 35 -24 -2
-9 -12 -16 -23 -17 -47 -2 -47 -6 -1 -33 26 -16 51 -34 55 -39 8 -13 51 -4 51
9 0 5 -11 9 -25 9 -45 0 -62 65 -20 76 32 8 32 24 1 24 -14 0 -40 9 -58 19
-18 10 -49 22 -68 26 -70 13 -130 37 -130 51 0 8 6 14 13 14 32 0 137 -23 192
-42 46 -15 100 -22 233 -27 95 -5 175 -11 178 -14 19 -18 -16 -27 -110 -27
l-103 0 5 -30 c2 -17 9 -29 16 -27 6 2 10 11 8 19 -2 11 10 17 44 22 75 10
240 7 271 -5 55 -22 159 -47 218 -54 83 -9 90 -12 103 -40 9 -18 19 -25 41
-25 16 0 48 -9 72 -20 24 -11 59 -20 77 -20 37 0 41 -12 10 -34 -36 -26 -84
-30 -128 -12 -47 18 -50 19 -50 8 0 -5 18 -16 40 -25 32 -12 40 -20 40 -41 0
-29 -7 -31 -45 -14 -19 9 -28 9 -37 0 -15 -15 -84 -16 -93 -2 -3 6 -19 10 -34
10 -16 0 -48 7 -72 16 -28 10 -78 15 -136 16 -84 0 -93 2 -93 19 0 26 31 39
74 32 25 -4 42 -1 54 9 9 8 25 18 35 21 10 4 15 11 12 17 -4 6 -17 1 -34 -11
-25 -18 -34 -19 -72 -11 -38 9 -41 11 -21 17 31 10 28 35 -5 36 -16 0 -48 2
-73 4 -58 4 -82 -8 -51 -24 29 -16 13 -36 -35 -46 -47 -8 -39 -25 22 -44 27
-9 48 -20 46 -26 -5 -14 -100 -44 -123 -38 -26 7 -13 23 19 23 20 0 23 3 14
12 -9 9 -22 9 -57 0 -68 -18 -88 -16 -80 8 4 11 2 20 -4 20 -6 0 -11 -4 -11
-10 0 -5 -21 -10 -48 -10 -37 0 -63 -9 -122 -42 -75 -43 -102 -78 -61 -78 12
0 26 -9 33 -20 8 -13 24 -20 43 -20 16 0 73 -9 125 -20 52 -11 116 -20 142
-20 37 0 50 -4 58 -20 6 -11 20 -20 30 -20 15 0 20 -7 20 -25 0 -20 5 -25 25
-25 31 0 33 27 5 63 -23 29 -13 42 26 33 33 -9 64 1 64 20 0 8 -17 25 -37 37
-26 15 -33 23 -21 25 9 2 19 17 22 37 4 18 14 36 22 39 30 12 152 6 187 -9 20
-8 51 -15 69 -15 42 0 60 -12 52 -33 -4 -12 2 -20 21 -27 24 -9 34 -7 65 15
20 14 45 25 56 25 11 0 49 -24 85 -53 40 -34 79 -57 102 -61 20 -4 50 -18 66
-31 16 -14 38 -25 49 -25 33 0 36 -20 8 -49 -30 -31 -26 -41 19 -41 33 0 93
-49 82 -67 -7 -11 -219 -5 -230 6 -5 5 8 25 28 46 37 40 40 54 8 36 -10 -6
-53 -22 -96 -37 l-79 -26 -22 21 c-26 24 -70 27 -106 5 -24 -14 -23 -14 21 -8
57 7 93 -8 84 -36 -6 -17 -3 -19 24 -14 22 5 32 2 36 -9 5 -12 12 -13 36 -3
27 9 33 8 45 -9 8 -10 13 -24 11 -30 -2 -5 -37 -15 -78 -21 -41 -7 -91 -18
-113 -25 -36 -12 -40 -12 -56 8 -15 19 -22 20 -65 12 -59 -11 -73 -22 -55 -44
18 -21 9 -27 -52 -33 -29 -2 -57 -10 -63 -16 -5 -7 -19 -15 -29 -19 -10 -4
-16 -10 -13 -14 11 -10 -14 -33 -34 -33 -20 0 -25 -15 -9 -25 21 -13 7 -24
-95 -75 -58 -28 -105 -55 -105 -58 0 -4 12 -25 25 -47 30 -48 32 -81 6 -95
-11 -5 -21 -10 -24 -10 -9 0 -76 67 -86 88 -7 12 -16 20 -22 16 -5 -3 -21 1
-34 10 -37 24 -126 21 -148 -5 -12 -14 -24 -18 -35 -14 -9 4 -40 10 -69 12
-41 4 -62 0 -108 -21 -46 -22 -55 -31 -50 -46 3 -11 1 -29 -5 -41 -21 -38 -3
-86 43 -120 34 -25 48 -29 72 -23 17 3 41 8 55 9 17 1 26 9 30 26 5 22 11 24
83 27 75 3 77 2 77 -20 0 -13 -9 -32 -21 -41 -13 -12 -19 -27 -17 -45 3 -26 4
-27 61 -24 40 2 66 -2 82 -12 21 -14 23 -21 18 -73 -7 -80 6 -91 84 -73 50 12
59 12 86 -4 30 -17 31 -17 72 13 43 31 116 61 149 61 13 0 17 -5 13 -20 -5
-21 7 -28 18 -10 8 13 68 13 80 1 13 -12 113 -17 143 -7 12 4 38 2 58 -4 26
-9 39 -9 47 -1 18 18 40 14 32 -6 -19 -48 -18 -53 12 -53 17 0 42 -12 63 -30
29 -24 44 -29 88 -30 63 0 108 -18 142 -55 14 -15 35 -31 48 -36 15 -6 22 -16
20 -27 -4 -21 33 -42 73 -42 16 0 58 -11 95 -25 36 -14 86 -25 111 -25 24 0
61 -9 81 -19 20 -10 55 -24 78 -30 22 -6 51 -22 63 -35 l23 -24 -26 -44 c-15
-25 -45 -56 -72 -73 -63 -40 -73 -51 -67 -74 8 -31 -23 -104 -65 -150 -32 -35
-47 -43 -83 -47 -24 -3 -77 -14 -116 -26 -70 -21 -73 -23 -73 -53 0 -36 -55
-95 -89 -95 -14 0 -25 -9 -31 -24 -11 -31 -88 -76 -139 -83 -24 -3 -38 -10
-35 -17 2 -7 -9 -25 -26 -41 -28 -26 -39 -30 -106 -33 -70 -4 -75 -6 -72 -26
3 -19 -1 -21 -39 -18 -26 2 -43 -1 -43 -7 0 -6 9 -11 20 -11 34 0 22 -16 -40
-55 -33 -21 -60 -42 -60 -46 0 -5 14 -9 30 -9 51 0 31 -30 -46 -68 -23 -12
-44 -28 -47 -36 -9 -24 51 -63 108 -72 49 -7 49 -8 20 -16 -16 -5 -68 -10
-115 -11 -76 -2 -91 1 -144 28 -34 17 -62 39 -67 52 -5 13 -13 23 -19 23 -7 0
-9 8 -5 19 3 12 0 21 -11 25 -15 6 -15 8 -1 30 12 17 13 26 4 35 -8 8 -2 21
25 49 29 29 35 43 31 64 -3 14 -1 34 5 44 7 12 6 24 -2 37 -8 15 -8 21 2 24 6
3 12 11 12 19 0 9 14 32 31 53 23 29 29 44 24 64 -4 14 -2 28 4 32 6 3 9 11 5
16 -3 6 3 17 15 25 14 10 20 25 19 47 0 18 5 60 11 94 8 41 9 69 2 81 -9 16
-80 53 -158 82 -19 7 -36 23 -43 41 -7 16 -18 33 -24 37 -15 9 -76 100 -76
112 0 6 -15 16 -34 24 -46 19 -52 33 -25 62 19 21 21 27 11 50 -15 31 -10 39
36 63 48 24 70 50 78 88 5 25 0 37 -24 64 -28 31 -30 32 -46 16 -26 -25 -59
-21 -142 19 -51 24 -79 44 -89 64 -13 25 -68 55 -84 46 -13 -9 -111 23 -149
49 -40 26 -42 26 -70 10 -26 -16 -31 -16 -60 -1 -17 9 -46 16 -65 16 -19 0
-46 9 -60 20 -13 11 -48 25 -76 31 -44 9 -89 38 -92 58 -4 34 -11 48 -31 63
-13 10 -28 18 -34 18 -6 0 -21 12 -35 26 -25 27 -103 84 -114 84 -4 0 7 -13
24 -29 17 -16 31 -33 31 -38 0 -5 14 -17 30 -26 35 -21 40 -47 9 -47 -27 0
-74 26 -122 68 -25 22 -44 31 -57 27 -24 -8 -35 12 -18 32 11 14 11 17 -1 21
-17 6 -45 34 -84 85 -18 24 -41 40 -65 46 -25 7 -62 34 -111 82 l-73 70 6 68
c9 90 -2 116 -61 142 -75 34 -78 36 -77 53 1 9 -9 24 -22 33 -23 15 -26 14
-38 -2 -11 -15 -17 -16 -49 -6 -46 16 -67 36 -67 66 0 24 -17 35 -56 35 -17 0
-27 8 -34 24 -5 14 -22 28 -42 35 -44 14 -202 41 -247 42 -20 0 -45 4 -55 8
-12 5 -40 -1 -75 -16 -62 -25 -107 -29 -114 -10 -3 8 -7 6 -12 -7 -5 -11 -3
-21 6 -27 11 -8 9 -13 -11 -30 -21 -18 -33 -20 -75 -15 -35 4 -68 0 -110 -13
-65 -20 -168 -41 -204 -41 -51 0 -8 27 95 59 l109 35 -44 8 c-24 4 -48 5 -52
2 -15 -9 -49 6 -49 22 0 17 -1 17 -36 3 -21 -7 -34 -7 -52 2 -19 11 -25 11
-31 0 -10 -16 -53 -11 -59 7 -2 7 6 12 22 12 23 0 26 3 20 23 -4 20 0 26 25
37 43 17 39 27 -15 33 -28 3 -54 13 -67 25 l-20 21 39 7 c49 9 118 9 164 -1
22 -5 31 -4 25 2 -13 13 -86 33 -117 33 -14 0 -31 7 -38 15 -14 17 -8 21 50
28 19 3 53 12 75 21 22 8 61 15 87 16 29 0 53 6 63 16 11 11 24 14 43 9 55
-14 129 -20 412 -35 107 -6 214 -16 237 -22 33 -8 46 -8 58 2 8 6 53 13 102
16 48 2 115 5 148 7 33 2 68 -2 77 -7 12 -7 21 -7 29 1 11 11 6 16 -619 498
-261 201 -271 210 -257 230 9 11 18 27 22 35 3 8 21 34 40 57 18 23 33 44 33
48 0 3 -21 3 -47 0 -61 -7 -898 -95 -906 -95 -3 0 -25 -28 -49 -62 -36 -52
-2178 -3047 -3093 -4326 -130 -183 -236 -334 -234 -336 4 -4 131 14 444 63 72
12 337 52 590 91 774 117 1298 197 1805 275 267 41 692 106 945 144 253 39
654 101 890 138 291 45 459 66 520 66 60 1 228 -20 500 -61 226 -34 581 -86
790 -117 209 -30 439 -64 510 -75 72 -11 254 -37 405 -59 151 -23 505 -74 785
-115 281 -42 742 -109 1025 -151 283 -41 574 -85 645 -97 158 -26 205 -27 315
-5 47 10 765 130 1595 267 831 138 1754 291 2051 340 l541 90 359 -55 c198
-31 811 -126 1364 -211 553 -85 1340 -207 1750 -270 410 -63 802 -124 873
-134 151 -24 332 -51 517 -80 328 -51 375 -57 379 -54 3 2 -1800 3537 -2034
3989 -34 66 -136 264 -225 440 -89 176 -168 325 -174 332 -7 7 -208 28 -546
57 -294 26 -634 55 -755 66 -296 26 -640 56 -925 80 -129 11 -336 29 -460 40
-124 11 -358 31 -520 45 -162 14 -314 28 -337 31 -22 3 -81 1 -130 -5 -77 -10
-324 -35 -1219 -122 l-231 -23 -46 -55 c-132 -160 -714 -919 -719 -938 -6 -21
-3 -22 46 -17 28 3 67 7 86 11 19 3 104 7 187 8 87 1 158 7 165 13 32 26 147
20 283 -14 38 -9 30 10 -10 25 -37 13 -47 38 -17 47 9 3 42 18 73 35 68 35 80
35 143 4 44 -21 52 -22 70 -9 30 20 45 17 52 -11 8 -31 26 -32 39 -2 13 28 71
35 114 13 41 -22 61 -20 32 3 -23 18 -23 19 -5 25 11 3 49 6 85 5 43 -1 93 7
153 25 48 14 110 26 136 26 l48 0 299 388 c164 213 307 399 316 415 21 33 37
34 63 6 10 -12 162 -132 337 -267 l317 -245 -27 -36 c-15 -20 -76 -99 -135
-176 -124 -161 -124 -169 -4 -141 46 11 102 16 161 14 89 -3 90 -3 93 -30 5
-42 26 -54 69 -39 21 8 88 14 157 15 123 2 158 11 170 42 9 22 7 23 -50 30
-75 9 -83 13 -60 30 35 25 300 14 328 -14 8 -8 0 -12 -28 -17 -66 -11 -72 -16
-39 -31 17 -8 64 -13 110 -13 59 1 94 -5 133 -20 44 -18 75 -21 190 -21 110 0
145 -4 177 -19 34 -15 60 -17 181 -13 116 4 148 2 174 -11 30 -15 33 -15 61 5
28 21 32 21 108 9 43 -7 101 -12 127 -10 73 4 98 0 119 -15 16 -11 17 -17 7
-28 -7 -9 -10 -28 -6 -45 5 -26 2 -31 -25 -43 -36 -15 -38 -21 -11 -38 11 -7
20 -16 20 -21 0 -4 -46 -11 -102 -14 -62 -3 -131 -14 -173 -27 -55 -17 -99
-22 -207 -24 -118 -1 -139 -4 -157 -20 -12 -11 -21 -26 -21 -34 0 -22 -40 -82
-54 -82 -14 0 -49 -18 -194 -98 -51 -29 -98 -52 -103 -52 -6 0 3 19 20 41 28
39 29 43 16 70 -8 15 -15 37 -15 48 0 32 56 69 148 97 74 23 84 28 69 39 -9 7
-17 20 -17 29 0 9 -2 16 -5 16 -3 0 -60 -23 -126 -52 -120 -51 -121 -51 -173
-39 -28 7 -60 12 -71 12 -11 -1 -81 -3 -155 -5 -132 -3 -137 -4 -205 -38 -38
-20 -84 -39 -102 -42 -29 -7 -31 -9 -20 -27 9 -15 23 -19 62 -18 66 0 148 -11
159 -22 6 -6 6 -13 -2 -21 -8 -8 -6 -17 8 -36 26 -33 25 -46 -5 -60 -21 -10
-24 -16 -19 -42 8 -36 -9 -46 -50 -30 -27 10 -28 13 -24 65 l5 55 -46 -49
c-62 -67 -250 -165 -299 -155 -38 8 -110 -18 -130 -47 -7 -10 -22 -19 -32 -19
-32 0 -34 -20 -5 -50 17 -18 24 -33 20 -42 -32 -55 -94 -81 -142 -59 l-26 12
23 24 c28 29 18 47 -23 43 -31 -3 -32 -2 -29 31 4 32 3 33 -25 27 -69 -18
-103 -19 -103 -3 0 14 -4 14 -32 3 -18 -7 -38 -11 -45 -9 -6 2 -14 -1 -18 -6
-8 -13 40 -33 75 -30 38 2 53 0 70 -11 12 -7 12 -12 -4 -29 -10 -11 -32 -23
-48 -26 l-30 -7 31 -32 c17 -17 33 -46 37 -63 11 -55 -2 -79 -53 -104 -27 -13
-83 -44 -125 -70 -78 -47 -155 -69 -240 -69 -43 0 -67 -22 -48 -45 10 -12 8
-18 -11 -35 -33 -27 -55 -33 -79 -20 -25 14 -25 30 0 63 24 30 25 37 6 37 -19
0 -86 -39 -86 -50 0 -8 11 -18 88 -85 28 -25 42 -45 42 -62 0 -31 -51 -83 -82
-83 -13 0 -36 -9 -53 -20 -48 -32 -75 -26 -137 30 -31 28 -63 50 -72 50 -8 0
-24 -17 -35 -37 l-19 -38 62 -60 c129 -128 139 -206 16 -139 -38 21 -55 39
-80 85 -17 32 -40 64 -51 69 -24 13 -25 39 -1 56 14 10 15 15 5 25 -8 8 -13
39 -13 76 0 72 -6 76 -62 37 -49 -34 -68 -27 -68 26 0 36 -7 48 -48 92 -43 45
-51 49 -70 39 -11 -6 -45 -11 -74 -11 -45 0 -61 -5 -97 -31 -23 -18 -79 -50
-124 -73 -75 -38 -82 -45 -88 -76 -3 -19 -13 -49 -22 -67 -22 -41 -22 -43 6
-43 27 0 53 -39 44 -65 -9 -22 -48 -35 -71 -23 -13 7 -17 18 -14 39 5 32 -3
37 -22 13 -34 -39 -80 -39 -80 0 0 13 -21 49 -46 82 -64 81 -98 156 -91 201 6
34 5 34 -23 28 -44 -10 -69 2 -78 38 -6 23 -15 33 -33 37 -13 3 -36 13 -51 24
-23 15 -33 16 -59 7 -70 -24 -246 -7 -283 28 -22 21 -27 22 -60 10 -32 -11
-42 -10 -93 10 -32 13 -74 39 -93 57 -28 27 -39 31 -48 22 -13 -13 -16 -38 -4
-38 4 0 35 -26 69 -59 l62 -58 58 28 c69 34 59 32 76 14 9 -8 37 -23 63 -32
73 -28 76 -42 19 -94 -66 -61 -108 -84 -195 -107 -259 -70 -311 -82 -348 -82
-38 0 -42 -2 -42 -24 0 -14 5 -28 10 -31 6 -4 67 6 135 20 99 21 129 24 140
15 22 -18 -6 -65 -92 -153 -57 -58 -85 -79 -130 -95 -47 -18 -170 -98 -231
-152 -17 -16 -4 -90 21 -118 16 -17 20 -33 18 -65 -5 -77 -41 -120 -117 -142
-29 -8 -66 -26 -81 -39 -25 -21 -26 -26 -15 -50 22 -49 16 -63 -37 -81 -42
-13 -50 -21 -53 -43 -2 -20 -20 -39 -73 -76 -114 -79 -158 -95 -269 -101 -53
-2 -106 -9 -117 -15 -32 -18 -88 5 -95 38 -14 66 -26 89 -64 126 -34 33 -40
45 -40 80 0 34 -9 54 -46 104 -30 41 -48 76 -51 102 -5 38 -3 43 37 81 43 41
43 41 27 69 -10 15 -17 42 -17 58 0 23 -13 44 -52 85 -29 30 -59 56 -66 59
-11 3 -11 14 4 57 9 29 23 55 30 58 20 7 17 21 -7 34 -15 8 -33 8 -63 0 -53
-13 -80 -6 -97 25 -19 36 -49 39 -137 15 -54 -14 -108 -21 -174 -21 -73 0 -99
-4 -108 -15 -7 -8 -20 -15 -29 -15 -24 0 -177 96 -195 122 -9 12 -41 35 -73
52 -48 26 -58 35 -58 58 -1 15 -4 30 -8 34 -4 4 9 25 29 47 36 40 37 44 13
103 -12 30 -10 34 36 90 56 70 63 75 135 101 44 17 57 26 65 51 15 44 41 69
103 97 46 21 53 27 42 40 -7 8 -27 15 -45 15 -34 0 -85 33 -85 55 0 7 7 18 15
25 9 8 12 22 8 41 -3 16 0 35 7 44 6 8 9 18 6 23 -3 5 -61 52 -128 104 -68 51
-240 184 -383 294 l-260 201 -87 -11 c-56 -7 -93 -17 -105 -28 -14 -13 -36
-18 -74 -18 -66 0 -144 -22 -144 -41 -1 -23 -15 -39 -35 -39 -12 0 -22 -9 -26
-24 -3 -13 -17 -29 -30 -35 -31 -14 -81 -14 -89 -1 -3 6 -18 10 -32 10 -44 0
-136 50 -186 102 -40 40 -48 54 -43 74 5 18 2 24 -9 24 -9 0 -18 8 -22 18 -3
9 -11 23 -17 31 -6 8 -15 32 -21 55 -10 41 -11 41 -80 59 -72 19 -245 26 -297
12 -20 -5 -35 -1 -57 14 -16 12 -40 21 -54 21 -14 0 -32 3 -41 6 -27 10 -18
24 17 24 51 1 110 17 119 34 6 10 23 16 44 16 27 0 36 5 44 24 9 26 61 49 87
39 9 -4 22 2 32 15 22 30 109 44 245 40 l111 -3 5 30 c6 33 40 46 65 25 16
-13 45 -7 45 9 0 5 -63 57 -140 116 l-139 107 92 120 c51 66 111 148 134 181
l42 62 -52 7 c-64 9 -920 89 -997 93 -30 2 -104 -3 -165 -10z m-532 -894 c33
-32 11 -46 -50 -31 -26 6 -68 11 -93 11 -59 -1 -79 11 -60 35 22 25 174 15
203 -15z m6084 -28 c3 -7 -14 -21 -36 -32 -34 -18 -59 -21 -160 -21 -91 0
-134 -5 -182 -20 -89 -28 -99 -35 -74 -54 16 -12 17 -16 6 -30 -17 -21 -77
-21 -163 0 -98 24 -90 38 42 80 46 14 94 33 106 41 25 16 162 32 279 33 44 0
87 5 95 10 20 13 82 8 87 -7z m-5993 -116 c9 -15 7 -22 -13 -38 -28 -23 -79
-25 -87 -4 -4 10 -20 15 -44 15 -46 0 -74 25 -42 37 12 5 55 8 98 8 63 0 79
-3 88 -18z m606 -276 c0 -6 -5 -13 -10 -16 -14 -9 -52 4 -45 16 8 12 55 12 55
0z m-2990 -205 c0 -28 -16 -36 -71 -36 -46 0 -52 15 -9 24 17 3 33 12 36 21
10 25 44 19 44 -9z m-186 -35 c7 -11 -68 -23 -99 -15 -14 3 -25 10 -25 15 0
12 117 12 124 0z m11314 -199 c107 -17 87 -45 -43 -57 -44 -4 -84 -10 -88 -12
-4 -3 -1 -16 7 -29 20 -29 20 -54 1 -54 -8 0 -18 -14 -23 -32 -7 -30 -14 -35
-84 -58 -42 -14 -80 -29 -84 -33 -4 -4 -27 -7 -50 -7 -24 0 -46 -4 -49 -10 -3
-5 -24 -10 -46 -10 -26 0 -46 -7 -59 -20 -11 -11 -29 -20 -40 -20 -11 0 -29 9
-40 20 -25 25 -26 60 -2 60 10 0 36 9 57 21 27 14 63 21 110 23 88 3 152 22
186 53 27 25 51 86 42 108 -3 9 8 19 29 28 18 8 39 22 47 31 11 13 24 16 45
12 17 -3 55 -9 84 -14z m-8084 -468 c24 -9 9 -24 -25 -24 -29 0 -40 14 -16 23
18 8 23 8 41 1z m7184 -41 c2 -15 -7 -27 -31 -42 -49 -30 -69 -28 -65 7 2 19
13 32 38 44 41 21 54 19 58 -9z m-7229 -23 c24 -11 52 -20 63 -20 24 0 58 -18
58 -30 0 -18 -59 -10 -122 15 -46 19 -80 25 -135 25 -40 0 -73 4 -73 9 0 26
152 26 209 1z m332 -70 c10 -6 19 -19 19 -30 0 -17 -6 -18 -62 -15 -35 2 -83
8 -108 13 l-45 8 30 16 c34 19 135 24 166 8z m118 -24 c10 -12 8 -17 -8 -25
-23 -13 -51 -5 -51 14 0 25 42 32 59 11z m-379 -36 c0 -16 -40 -22 -56 -9 -14
12 -14 14 1 26 18 13 55 2 55 -17z m7161 0 c29 -16 23 -34 -17 -53 -46 -22
-35 -37 26 -37 71 0 78 -32 7 -36 -15 -1 -54 -16 -86 -33 -72 -38 -110 -42
-70 -8 14 12 35 27 45 33 17 10 16 12 -12 27 -49 25 -49 43 -4 72 22 14 40 30
40 35 0 13 46 13 71 0z m107 -146 c22 -15 23 -17 5 -36 -12 -13 -27 -18 -45
-16 -37 6 -35 1 5 -15 49 -21 69 -44 57 -67 -19 -35 -85 -42 -138 -14 -15 8
-39 14 -54 14 -16 0 -28 4 -28 10 0 17 37 30 84 30 25 0 46 5 46 10 0 6 -25
10 -55 10 -40 0 -55 4 -55 14 0 25 28 39 65 32 21 -4 35 -3 35 3 0 14 29 41
43 41 7 0 23 -7 35 -16z m-328 -158 c7 -18 14 -23 29 -19 29 8 26 -11 -4 -25
-25 -12 -33 -36 -15 -47 22 -14 9 -46 -30 -70 -29 -18 -40 -32 -40 -50 0 -36
-30 -48 -108 -40 -127 12 -174 42 -176 112 -1 36 1 38 29 38 17 0 40 6 52 13
12 6 30 12 40 12 11 0 34 11 53 25 19 14 47 25 62 25 18 0 28 5 28 15 0 16 27
34 53 35 10 0 22 -11 27 -24z m-740 -32 c30 -14 78 -40 105 -58 82 -54 172
-106 183 -106 22 0 22 -21 1 -50 -13 -16 -21 -31 -18 -32 45 -28 86 -38 176
-42 106 -5 143 -16 143 -42 0 -12 -12 -14 -77 -8 -43 4 -86 11 -95 15 -9 5
-46 9 -82 9 -49 0 -71 4 -84 18 -20 18 -40 32 -86 60 -76 46 -93 61 -115 103
-16 31 -42 58 -75 80 -70 46 -86 60 -80 70 9 16 48 9 104 -17z m1160 -80 c0
-28 -24 -65 -47 -70 -56 -15 -70 21 -24 66 29 30 71 32 71 4z m-150 -14 c0
-19 -50 -30 -131 -30 -62 0 -79 3 -79 15 0 11 17 15 73 18 39 1 87 4 105 5 17
1 32 -3 32 -8z m277 -41 c6 -6 60 -13 120 -16 80 -4 131 -12 199 -33 105 -33
152 -60 202 -112 19 -21 41 -38 48 -38 15 0 44 -38 44 -57 0 -32 -131 5 -157
43 -20 32 -53 31 -95 -3 -18 -15 -34 -28 -36 -29 -10 -6 43 -84 76 -111 27
-22 42 -43 46 -67 8 -40 17 -49 69 -65 20 -7 37 -18 37 -25 0 -7 18 -28 41
-46 23 -18 47 -48 55 -66 16 -38 18 -102 5 -136 -13 -35 -157 -178 -179 -178
-10 0 -40 -7 -66 -16 -39 -13 -52 -14 -77 -4 -23 10 -33 10 -42 1 -14 -14 -50
-14 -64 0 -6 6 -26 14 -45 18 -26 5 -34 12 -36 32 -3 26 -35 49 -68 49 -8 0
-18 10 -23 22 -8 21 -8 21 -28 1 -41 -41 -100 -41 -89 1 6 25 -7 34 -82 57
-34 10 -56 10 -107 0 -36 -6 -76 -9 -90 -5 -20 5 -37 -1 -70 -25 -35 -25 -53
-31 -97 -31 -29 0 -75 -7 -102 -15 -72 -22 -120 -19 -152 9 l-28 23 32 17 c37
19 41 36 12 54 -11 7 -20 21 -20 32 0 12 -7 23 -15 26 -20 8 -29 42 -14 60 9
11 8 18 -6 34 -46 51 58 112 215 124 80 7 86 9 102 36 11 20 29 32 60 40 24 7
57 24 73 40 41 39 76 46 114 24 29 -17 31 -17 52 2 11 10 27 31 35 46 12 24
18 26 39 18 14 -5 38 -7 54 -4 16 4 32 1 35 -5 4 -6 34 -11 66 -11 65 0 81
-12 55 -40 -26 -29 -14 -43 64 -69 l70 -24 21 24 c15 18 19 33 15 56 -4 19 0
44 9 61 14 28 14 30 -17 53 -18 14 -52 26 -77 29 l-45 5 29 16 28 16 -27 21
c-14 11 -47 24 -73 28 -26 3 -53 11 -59 16 -7 6 -24 7 -37 4 -13 -3 -32 -3
-41 0 -14 6 -14 9 6 30 l21 23 -38 7 c-54 9 -60 15 -33 30 29 16 71 18 86 3z
m-352 -11 c11 -11 -5 -28 -26 -28 -20 0 -20 0 0 -26 27 -34 27 -64 1 -64 -30
0 -69 21 -75 42 -5 14 -10 16 -25 8 -22 -12 -67 -13 -73 -2 -3 4 6 24 19 45
l25 37 74 -3 c41 -1 77 -6 80 -9z m86 -178 c10 -6 19 -15 19 -20 0 -9 -96 -40
-124 -40 -26 0 -18 24 17 47 36 24 59 28 88 13z m-223 -37 c-4 -20 -36 -28
-57 -14 -21 13 -4 31 30 31 24 0 30 -4 27 -17z m-2568 -59 c25 -29 14 -69 -50
-177 -34 -59 -69 -112 -76 -118 -20 -16 -88 -23 -111 -11 -28 15 -39 94 -17
127 12 19 13 28 4 45 -18 33 -6 48 56 66 34 10 71 29 93 50 39 36 80 44 101
18z m4775 -124 c7 -12 -31 -36 -72 -45 -45 -9 -42 10 5 34 42 23 58 25 67 11z
m-546 -111 c21 -8 31 -17 29 -28 -5 -28 -44 -24 -80 8 l-33 30 26 1 c14 0 40
-5 58 -11z m298 -385 c26 -29 38 -35 57 -30 14 3 28 1 34 -7 15 -18 -71 -87
-108 -87 -15 0 -35 -9 -45 -20 -32 -35 -186 -110 -227 -110 -47 0 -91 17 -86
33 3 6 31 22 64 35 32 12 92 39 131 59 64 32 76 35 99 24 26 -11 44 -8 44 10
0 5 -11 9 -24 9 -33 0 -44 20 -16 27 22 6 23 12 5 71 -12 37 33 28 72 -14z
m-1017 -114 c-13 -24 -45 -45 -82 -54 -21 -5 -32 0 -53 21 -14 15 -25 31 -25
35 0 6 35 10 138 16 30 2 32 0 22 -18z"/>
<path d="M13494 10455 c-159 -206 -289 -380 -289 -387 0 -7 65 -63 145 -126
307 -240 401 -312 409 -312 6 0 200 246 519 661 l81 106 -27 25 c-44 40 -531
408 -540 408 -5 0 -139 -169 -298 -375z"/>
<path d="M5795 9983 c-24 -32 -77 -100 -117 -152 -40 -52 -77 -96 -83 -97 -5
-2 -68 41 -138 96 -71 55 -133 100 -137 100 -12 0 -70 -50 -70 -61 0 -5 77
-48 172 -95 124 -62 176 -83 188 -77 25 12 339 267 340 275 0 4 -17 16 -37 27
-21 11 -32 20 -25 21 24 0 1 20 -24 20 -18 0 -36 -15 -69 -57z"/>
<path d="M12425 9990 c-4 -6 -4 -27 -1 -46 6 -31 4 -36 -23 -52 -29 -16 -40
-32 -23 -32 4 0 23 11 43 24 32 22 34 27 31 65 -4 42 -16 59 -27 41z"/>
<path d="M12780 9993 c0 -5 4 -15 10 -23 11 -18 25 -7 17 15 -6 15 -27 21 -27
8z"/>
<path d="M12542 9943 c-22 -9 7 -33 40 -33 26 0 28 2 18 20 -10 19 -31 24 -58
13z"/>
<path d="M6605 9921 c23 -22 75 -18 75 5 0 10 -14 14 -47 14 -47 0 -47 0 -28
-19z"/>
<path d="M4040 9790 c0 -5 5 -10 10 -10 6 0 10 5 10 10 0 6 -4 10 -10 10 -5 0
-10 -4 -10 -10z"/>
<path d="M13850 9615 c-35 -47 -67 -85 -71 -85 -4 0 -39 25 -79 56 -66 52 -73
56 -96 44 -13 -8 -24 -17 -24 -22 0 -13 200 -109 213 -102 12 7 158 125 186
150 11 10 8 15 -17 28 -17 9 -35 16 -39 16 -4 0 -37 -39 -73 -85z"/>
<path d="M6568 9428 c-59 -21 -73 -44 -17 -28 17 5 60 6 95 3 38 -3 64 -2 64
4 0 7 -41 28 -80 39 -3 1 -31 -7 -62 -18z"/>
<path d="M11540 9365 c-14 -8 -46 -14 -72 -13 -46 1 -78 -13 -78 -36 0 -23 65
-74 102 -80 36 -6 56 -21 45 -33 -3 -2 -23 -11 -44 -18 -57 -20 -52 -47 12
-63 28 -7 68 -11 90 -10 37 3 40 5 38 32 -1 16 -9 36 -18 46 -15 17 -15 19 1
28 15 9 15 11 -8 23 -59 34 -88 55 -88 65 0 20 48 33 102 28 l53 -5 -28 25
c-31 29 -69 33 -107 11z"/>
<path d="M6648 9359 c-13 -7 -18 -23 -18 -59 0 -28 5 -50 10 -50 6 0 10 14 10
30 0 32 30 70 54 70 8 0 18 5 21 10 8 13 -55 13 -77 -1z"/>
<path d="M6779 9343 c5 -10 12 -26 15 -35 7 -24 26 -23 26 1 0 11 3 26 6 35 5
13 -1 16 -25 16 -27 0 -30 -3 -22 -17z"/>
<path d="M10972 9312 c-47 -44 -53 -62 -19 -62 13 0 48 -7 77 -16 61 -18 160
-12 160 10 0 12 -124 76 -148 76 -6 0 -15 7 -20 15 -7 13 -15 9 -50 -23z"/>
<path d="M6900 9290 c-32 -25 -18 -25 45 0 l50 19 -35 0 c-20 0 -46 -8 -60
-19z"/>
<path d="M10770 9058 c-69 -89 -188 -244 -266 -344 l-141 -182 -303 234 c-167
129 -306 234 -308 234 -3 0 -42 -30 -88 -67 -76 -62 -82 -69 -67 -81 10 -7
189 -99 399 -204 l381 -192 392 319 392 319 -123 63 c-68 34 -128 63 -133 63
-6 0 -67 -73 -135 -162z"/>
<path d="M9517 9103 c-16 -15 -5 -23 32 -23 44 0 71 8 71 21 0 10 -93 12 -103
2z"/>
<path d="M5682 8978 c2 -6 10 -14 16 -16 7 -2 10 2 6 12 -7 18 -28 22 -22 4z"/>
<path d="M10920 8881 c0 -13 86 -154 130 -213 19 -26 43 -59 53 -73 10 -14 31
-32 47 -40 28 -15 30 -14 30 5 0 43 -31 97 -74 127 -23 17 -50 47 -61 69 -10
21 -24 42 -31 47 -7 4 -23 25 -35 47 -14 24 -30 40 -41 40 -10 0 -18 -4 -18
-9z"/>
<path d="M10792 8198 c-16 -16 -15 -48 1 -48 16 0 47 32 47 48 0 16 -33 15
-48 0z"/>
<path d="M5320 6743 c-14 -2 -128 -20 -255 -39 -126 -19 -288 -44 -360 -55
-71 -11 -187 -29 -257 -39 -71 -11 -185 -29 -255 -40 -168 -25 -333 -50 -698
-105 -165 -25 -325 -50 -355 -55 -30 -5 -118 -19 -195 -30 -77 -11 -196 -29
-265 -40 -69 -11 -289 -45 -490 -75 -201 -30 -423 -64 -495 -75 -328 -51 -397
-62 -650 -100 -148 -22 -313 -47 -365 -55 -52 -9 -225 -35 -384 -60 -158 -24
-291 -46 -294 -50 -3 -3 -1 -10 4 -15 6 -6 103 5 264 30 140 22 478 73 750
115 272 41 551 84 620 95 69 11 289 45 490 75 201 30 421 64 490 75 199 30
313 48 495 75 94 14 226 34 295 45 69 11 289 45 490 75 201 30 421 64 490 75
138 22 808 124 910 138 71 11 55 12 565 -63 171 -25 402 -59 515 -75 113 -16
282 -41 375 -55 224 -34 417 -62 540 -80 55 -8 224 -32 375 -55 151 -22 381
-56 510 -75 129 -19 375 -55 545 -80 171 -25 355 -52 410 -60 131 -19 613 -90
785 -116 318 -47 232 -52 810 45 283 47 1127 187 1875 311 748 124 1484 246
1635 272 320 53 269 55 805 -32 50 -8 150 -24 223 -35 150 -23 327 -50 517
-79 72 -11 191 -29 265 -41 74 -11 162 -25 195 -30 33 -6 134 -21 225 -35 91
-14 221 -34 290 -45 69 -10 185 -28 258 -40 148 -22 280 -43 617 -95 246 -38
407 -63 615 -95 72 -11 190 -29 263 -40 72 -12 191 -30 262 -41 72 -11 155
-24 185 -29 30 -5 132 -21 225 -35 213 -32 396 -60 550 -85 141 -24 188 -25
183 -7 -3 7 -39 17 -84 24 -89 13 -670 102 -869 134 -139 21 -310 48 -520 80
-71 11 -155 24 -185 29 -30 5 -190 30 -355 55 -165 25 -357 54 -427 65 -127
20 -257 40 -518 80 -74 11 -160 25 -190 30 -30 5 -190 30 -355 55 -165 25
-357 54 -427 65 -71 11 -186 29 -258 40 -365 56 -599 93 -770 120 -63 10 -188
28 -277 41 l-161 23 -834 -138 c-458 -76 -925 -154 -1038 -173 -113 -19 -234
-39 -270 -44 -36 -5 -101 -16 -145 -24 -66 -12 -1883 -313 -1995 -331 -32 -4
-173 14 -625 81 -295 44 -842 125 -1020 150 -55 8 -192 28 -305 45 -113 17
-297 44 -410 60 -113 16 -281 41 -375 55 -212 32 -382 57 -645 95 -113 16
-281 41 -375 55 -93 14 -215 32 -270 40 -55 8 -176 26 -270 40 -312 46 -586
85 -593 84 -4 -1 -18 -4 -32 -6z"/>
</g>
</svg>
