<svg viewBox="0 0 48 48" xmlns="http://www.w3.org/2000/svg" xmlns:xlink="http://www.w3.org/1999/xlink"><ellipse cx="24" cy="38.979" rx="2.97" ry=".857" fill="#303030"/><path d="M24 8.162c-5.37 0-9.71 4.35-9.71 9.71 0 1.71.44 3.31 1.23 4.7l-.01.01 7.77 11.63c.34.51 1.1.51 1.44 0l7.76-11.63v-.01a9.463 9.463 0 0 0 1.23-4.7c0-5.36-4.36-9.71-9.71-9.71zm.33 15.89a5.15 5.15 0 0 1-5.47-4.81c-.18-2.83 1.98-5.28 4.82-5.46a5.153 5.153 0 0 1 5.46 4.81 5.147 5.147 0 0 1-4.81 5.46z" fill="#fff"/><path fill="none" stroke="#303030" stroke-width=".7" stroke-linecap="round" stroke-linejoin="round" stroke-miterlimit="10" d="M16.482 24.032l.024.024"/><path d="M32.483 22.581l-7.763 11.63a.867.867 0 0 1-1.442 0l-7.764-11.63.002-.004a9.57 9.57 0 0 1-1.222-4.707c0-5.354 4.34-9.706 9.706-9.706 5.354 0 9.706 4.352 9.706 9.706a9.57 9.57 0 0 1-1.222 4.707l-.001.004z" fill="none" stroke="#303030" stroke-width=".7" stroke-linecap="round" stroke-linejoin="round" stroke-miterlimit="10"/><path d="M30.971 15.147c.178.624.26 1.286.232 1.97" fill="none" stroke="#303030" stroke-width=".7" stroke-linecap="round" stroke-linejoin="round" stroke-miterlimit="10"/><path d="M25.226 10.619a6.238 6.238 0 0 1 4.976 2.84" fill="none" stroke="#303030" stroke-width=".7" stroke-linecap="round" stroke-linejoin="round" stroke-miterlimit="10"/><ellipse cx="24" cy="18.919" rx="5.146" ry="5.146" transform="rotate(-3.621 23.999 18.919)" fill="none" stroke="#303030" stroke-width=".7" stroke-linecap="round" stroke-linejoin="round" stroke-miterlimit="10"/><ellipse cx="24" cy="38.979" rx="2.97" ry=".857" fill="none" stroke="#303030" stroke-width=".7" stroke-linecap="round" stroke-linejoin="round" stroke-miterlimit="10"/></svg>